<?xml version="1.0" standalone="no"?>
<!DOCTYPE svg PUBLIC "-//W3C//DTD SVG 20010904//EN"
 "http://www.w3.org/TR/2001/REC-SVG-20010904/DTD/svg10.dtd">
<svg version="1.0" xmlns="http://www.w3.org/2000/svg"
 width="500.000000pt" height="500.000000pt" viewBox="0 0 500.000000 500.000000"
 preserveAspectRatio="xMidYMid meet">

<g transform="translate(0.000000,500.000000) scale(0.100000,-0.100000)"
fill="#000000" stroke="none">
<path d="M2520 4202 c-7 -71 -10 -146 -6 -167 21 -112 192 -161 290 -84 37 29
45 53 65 206 l18 132 -40 6 c-26 5 -42 3 -47 -5 -4 -6 -10 -57 -14 -113 -8
-109 -23 -159 -54 -176 -48 -26 -114 -3 -132 45 -6 15 -4 68 5 146 8 67 12
125 9 130 -3 4 -22 8 -43 8 l-39 0 -12 -128z"/>
<path d="M2987 4168 c-76 -242 -87 -282 -80 -288 4 -4 22 -12 40 -18 l32 -11
56 173 c30 96 55 181 55 189 0 13 -46 37 -70 37 -4 0 -19 -37 -33 -82z"/>
<path d="M3320 4170 c-19 -21 -105 -111 -190 -200 -85 -89 -154 -165 -153
-168 1 -3 15 -11 31 -18 l30 -12 165 172 c239 249 229 235 176 254 -20 8 -29
4 -59 -28z"/>
<path d="M1730 4156 c-30 -13 -76 -33 -102 -45 l-47 -22 23 -52 c13 -29 50
-109 82 -179 l58 -127 38 20 c21 11 38 22 38 25 0 2 -9 22 -20 44 -11 22 -20
42 -20 44 0 3 17 14 38 25 l37 19 58 -35 c55 -35 58 -35 93 -22 20 8 36 19 36
24 0 6 -22 24 -50 40 -66 39 -67 40 -48 67 22 31 20 96 -4 135 -39 65 -115 79
-210 39z m126 -73 c19 -26 17 -77 -3 -95 -22 -19 -82 -48 -98 -48 -6 0 -23 27
-38 60 l-26 60 37 20 c47 25 110 26 128 3z"/>
<path d="M3394 3999 c-27 -39 -61 -86 -76 -106 -52 -67 -50 -154 4 -211 44
-46 99 -72 149 -72 64 0 109 34 179 136 8 12 30 43 49 70 l34 47 -27 24 c-15
12 -31 23 -35 23 -8 0 -26 -22 -113 -140 -41 -57 -70 -79 -101 -80 -32 0 -74
28 -86 58 -17 40 -2 73 83 186 l67 89 -35 23 c-19 13 -37 24 -39 24 -2 0 -26
-32 -53 -71z"/>
<path d="M1390 3960 c-41 -33 -93 -74 -115 -93 l-39 -34 32 -39 c34 -42 116
-146 172 -218 34 -45 35 -45 60 -29 41 27 210 165 210 172 0 3 -9 17 -19 30
l-18 23 -84 -67 -83 -67 -28 31 c-15 17 -28 35 -28 40 0 4 28 30 63 56 34 27
66 52 70 56 5 4 -1 18 -13 32 l-23 26 -36 -27 c-20 -14 -51 -39 -70 -55 l-33
-28 -29 27 c-16 15 -29 31 -29 34 0 4 36 36 79 71 l79 63 -20 28 c-10 15 -20
28 -21 28 -1 0 -36 -27 -77 -60z"/>
<path d="M2232 4009 c-49 -18 -35 -99 18 -99 41 0 65 37 49 73 -13 29 -35 38
-67 26z"/>
<path d="M3815 3778 c-5 -14 -55 -208 -55 -213 0 -2 -56 -6 -125 -10 l-125 -7
32 -40 31 -40 85 8 c79 6 85 5 78 -11 -3 -10 -14 -46 -22 -81 l-16 -62 28 -36
c16 -19 32 -32 35 -28 4 4 17 48 29 97 36 144 22 131 146 138 59 4 109 9 112
12 2 2 -6 18 -19 35 l-24 31 -82 -5 c-46 -3 -83 -4 -83 -3 0 1 9 35 20 75 l20
72 -26 40 c-29 44 -32 46 -39 28z"/>
<path d="M1100 3701 c-12 -17 -18 -36 -15 -41 4 -6 44 -39 91 -74 l84 -63 -38
-7 c-20 -3 -87 -6 -148 -6 -109 0 -110 0 -139 -30 -17 -18 -25 -33 -19 -39 15
-14 175 -135 198 -151 12 -8 41 -30 63 -48 l41 -32 26 31 c14 17 26 34 25 37
0 7 -101 85 -150 115 -16 11 -29 23 -29 28 0 5 46 9 103 9 159 0 202 8 225 40
l20 27 -151 114 c-82 63 -154 115 -158 117 -4 2 -17 -11 -29 -27z"/>
<path d="M865 3290 c-54 -22 -108 -124 -108 -205 0 -105 73 -184 179 -193 73
-6 132 17 173 68 37 46 46 69 55 135 11 77 -2 98 -76 126 -34 13 -65 25 -68
27 -5 2 -30 -56 -30 -70 0 -3 23 -14 50 -24 48 -17 50 -19 50 -56 0 -29 -8
-47 -36 -77 -19 -22 -48 -43 -65 -46 -60 -13 -139 36 -153 98 -11 45 11 103
49 135 33 27 35 30 24 60 -12 34 -13 35 -44 22z"/>
<path d="M4018 3177 c-104 -36 -178 -67 -178 -74 0 -18 54 -173 73 -209 31
-60 103 -104 169 -104 53 0 133 43 162 87 44 67 44 110 0 245 -21 65 -41 118
-44 117 -3 0 -85 -28 -182 -62z m165 -100 c21 -68 21 -101 0 -138 -18 -29 -76
-59 -117 -59 -44 0 -88 41 -113 105 -13 32 -19 63 -15 67 8 8 198 75 218 77 6
1 18 -23 27 -52z"/>
<path d="M674 2833 c-3 -15 -7 -33 -9 -40 -5 -15 -3 -16 180 -52 216 -42 203
-41 209 -17 8 29 7 66 -1 66 -4 0 -72 13 -152 29 -236 47 -219 46 -227 14z"/>
<path d="M4140 2724 c-80 -7 -153 -13 -163 -13 -18 -1 -18 -9 -13 -108 4 -60
9 -127 12 -150 5 -41 7 -43 40 -43 l34 0 -5 73 c-3 39 -8 89 -11 110 -4 31 -1
37 15 37 10 0 32 3 49 6 l30 6 7 -91 8 -91 34 0 34 0 -3 93 -3 92 43 3 42 3 0
-59 c0 -33 3 -80 6 -106 6 -38 10 -46 28 -46 45 0 46 7 34 158 l-11 142 -31
-1 c-17 -1 -96 -8 -176 -15z"/>
<path d="M873 2660 c-26 -11 -49 -52 -77 -140 -19 -57 -24 -65 -48 -68 -23 -3
-30 2 -39 25 -11 27 -3 97 16 144 5 12 -2 20 -26 28 -18 6 -33 10 -35 9 -8 -9
-34 -117 -34 -141 0 -89 52 -157 119 -157 53 0 86 29 106 93 32 102 46 127 72
127 47 0 55 -107 12 -176 l-19 -31 26 -11 c41 -19 51 -14 70 35 23 61 24 167
1 210 -28 53 -89 75 -144 53z"/>
<path d="M3992 2368 c-40 -65 -54 -171 -32 -235 20 -56 113 -83 159 -45 11 9
39 54 61 100 41 85 62 101 90 67 18 -22 7 -110 -18 -144 l-21 -28 27 -14 c15
-7 30 -15 33 -17 4 -1 17 13 29 32 31 51 38 168 13 216 -24 47 -84 68 -135 47
-27 -11 -40 -28 -67 -83 -44 -95 -45 -96 -63 -108 -12 -7 -21 -6 -33 4 -23 19
-16 103 14 160 l23 44 -24 18 c-31 24 -33 23 -56 -14z"/>
<path d="M987 2333 c-27 -4 -28 -6 -21 -51 3 -26 12 -74 20 -107 7 -32 12 -60
11 -62 -1 -1 -22 -6 -45 -12 -32 -7 -44 -6 -47 2 -1 7 -10 48 -19 92 -9 43
-18 80 -19 81 -1 0 -16 -3 -33 -7 l-31 -9 19 -86 c10 -48 17 -89 14 -91 -2 -3
-22 -7 -45 -10 -45 -6 -39 -17 -66 116 -9 41 -17 76 -18 77 -1 1 -15 0 -30 -3
-29 -6 -29 -6 -22 -62 6 -48 14 -89 40 -208 7 -30 20 -29 185 6 74 15 151 31
171 35 l36 6 -23 103 c-12 56 -25 123 -29 150 -4 26 -10 46 -14 46 -3 -1 -19
-4 -34 -6z"/>
<path d="M3902 2013 c-6 -21 -8 -40 -4 -44 4 -4 59 -23 122 -44 63 -21 141
-47 173 -58 63 -22 68 -20 85 30 10 30 9 32 -21 43 -32 11 -338 110 -342 110
-1 0 -7 -17 -13 -37z"/>
<path d="M932 1937 c-48 -18 -97 -60 -117 -103 -28 -59 -17 -131 39 -246 25
-54 48 -98 51 -98 15 0 345 165 345 172 0 11 -74 161 -101 205 -23 37 -109 83
-153 82 -17 0 -46 -6 -64 -12z m128 -92 c20 -10 41 -37 61 -76 17 -34 29 -62
27 -64 -8 -8 -209 -105 -216 -105 -14 0 -56 112 -55 146 2 86 103 140 183 99z"/>
<path d="M3899 1847 c-85 -28 -150 -122 -153 -220 l-1 -48 64 -35 c35 -19 67
-34 71 -34 3 0 14 15 22 34 l17 34 -40 17 c-59 27 -65 38 -45 90 36 93 146
114 213 41 27 -29 33 -44 33 -78 0 -52 -28 -101 -70 -123 -16 -8 -30 -21 -30
-28 0 -28 13 -57 26 -57 29 0 84 44 114 90 82 127 31 282 -105 319 -49 13 -69
13 -116 -2z"/>
<path d="M3652 1537 l-33 -34 88 -81 88 -82 -40 0 c-22 0 -92 5 -155 10 l-114
10 -25 -25 -26 -25 138 -137 137 -138 32 33 33 34 -84 79 c-47 43 -83 81 -80
83 3 3 72 -1 154 -9 149 -14 149 -14 172 7 13 12 22 26 22 32 -1 6 -63 71
-138 144 l-137 132 -32 -33z"/>
<path d="M1297 1459 c-27 -16 -49 -67 -42 -98 5 -26 3 -29 -27 -35 -49 -10
-78 -42 -78 -88 0 -56 18 -84 113 -170 l85 -78 124 131 c67 72 126 137 130
144 9 14 -7 32 -107 124 -39 35 -80 67 -93 72 -31 12 -83 11 -105 -2z m152
-117 l55 -48 -28 -37 c-16 -20 -33 -37 -39 -37 -5 0 -32 22 -59 50 -48 50 -60
84 -36 108 22 22 53 12 107 -36z m-112 -123 c26 -23 50 -43 52 -45 5 -5 -50
-69 -60 -69 -4 0 -28 20 -53 43 -49 47 -59 83 -28 101 28 17 38 13 89 -30z"/>
<path d="M3290 1219 c-52 -33 -105 -64 -117 -69 -31 -13 -37 -29 -22 -56 16
-30 23 -29 79 6 58 38 121 72 124 68 32 -45 47 -70 45 -72 -2 -2 -37 -25 -76
-50 -40 -26 -73 -49 -73 -52 0 -3 7 -15 16 -29 l15 -23 60 35 c33 20 62 40 65
44 12 21 41 7 57 -26 l17 -36 -77 -49 c-43 -28 -82 -51 -87 -53 -5 -2 -1 -17
9 -35 19 -31 20 -31 45 -15 14 9 69 43 123 76 53 32 97 62 97 66 0 3 -28 52
-62 107 -35 56 -79 128 -98 162 -19 34 -37 61 -40 61 -3 0 -48 -27 -100 -60z"/>
<path d="M1624 1229 c-18 -37 -25 -30 88 -92 43 -23 78 -46 78 -51 0 -5 -9
-24 -21 -42 l-21 -34 -79 42 c-77 42 -79 42 -93 23 -9 -11 -16 -24 -16 -30 0
-10 86 -63 127 -78 28 -11 29 -21 3 -62 l-21 -33 -87 49 c-48 27 -90 49 -93
49 -3 0 -11 -12 -18 -27 -15 -32 -9 -38 69 -80 30 -16 81 -45 113 -63 32 -18
59 -31 61 -29 11 16 64 106 67 114 2 6 30 56 62 112 31 55 57 105 57 110 0 5
-24 21 -52 36 -58 29 -150 80 -185 103 -21 13 -24 12 -39 -17z"/>
<path d="M3060 1097 c-19 -6 -36 -11 -38 -13 -2 -1 4 -26 12 -55 9 -29 15 -54
13 -55 -1 -2 -21 -7 -44 -12 -39 -9 -44 -8 -88 29 -52 43 -57 44 -104 28 -39
-14 -39 -22 2 -48 17 -12 43 -30 55 -41 l24 -20 -21 -26 c-15 -19 -21 -41 -21
-73 1 -53 14 -80 53 -111 45 -36 90 -36 207 0 58 18 106 34 108 35 5 4 -117
377 -122 374 0 -1 -17 -6 -36 -12z m26 -228 c28 -85 27 -89 -10 -104 -72 -30
-123 -15 -140 42 -9 29 27 69 79 87 51 19 58 16 71 -25z"/>
<path d="M2023 1038 c-6 -7 -42 -69 -81 -138 -38 -69 -79 -142 -91 -164 -12
-21 -21 -40 -19 -41 2 -2 20 -5 41 -7 l39 -3 70 123 c39 67 72 121 74 119 2
-2 11 -67 20 -144 l17 -142 40 -6 c28 -5 42 -3 48 6 5 8 36 62 70 122 33 59
64 105 69 102 4 -3 13 -65 20 -139 l13 -133 43 -10 c53 -12 51 -29 24 177 -11
85 -20 169 -20 187 0 33 -3 35 -66 48 -32 6 -32 5 -99 -109 -37 -64 -70 -116
-74 -116 -4 0 -13 57 -20 128 -7 70 -16 130 -19 134 -15 15 -88 20 -99 6z"/>
<path d="M2535 984 c-26 -26 -16 -77 17 -88 22 -8 32 -6 48 9 25 23 26 49 0
75 -24 24 -43 25 -65 4z"/>
</g>
</svg>
