<?xml version="1.0" standalone="no"?>
<!DOCTYPE svg PUBLIC "-//W3C//DTD SVG 20010904//EN"
 "http://www.w3.org/TR/2001/REC-SVG-20010904/DTD/svg10.dtd">
<svg version="1.0" xmlns="http://www.w3.org/2000/svg"
 width="500.000000pt" height="500.000000pt" viewBox="0 0 500.000000 500.000000"
 preserveAspectRatio="xMidYMid meet">

<g transform="translate(0.000000,500.000000) scale(0.100000,-0.100000)"
fill="#000000" stroke="none">
<path d="M2625 4396 c-30 -160 -29 -206 5 -261 52 -85 213 -119 297 -63 55 36
81 94 104 231 10 61 21 124 24 139 6 24 3 27 -42 36 -26 6 -49 10 -50 8 -1 -1
-14 -62 -28 -136 -14 -74 -31 -148 -37 -163 -23 -58 -104 -71 -162 -26 -23 18
-26 28 -26 77 0 31 9 108 21 170 12 62 20 115 18 117 -2 2 -25 6 -50 10 l-47
7 -27 -146z"/>
<path d="M2124 4402 c-12 -2 -34 -16 -49 -32 -25 -26 -30 -27 -40 -14 -9 13
-18 14 -52 5 l-40 -11 24 -103 c13 -56 33 -132 43 -168 l20 -66 46 10 c39 9
45 14 40 31 -21 76 -38 185 -33 207 5 20 49 54 84 65 2 0 -3 18 -10 40 -9 31
-16 38 -33 36z"/>
<path d="M3200 4390 c-16 -30 -151 -363 -157 -386 -4 -16 3 -23 38 -37 24 -9
46 -14 50 -9 4 4 16 30 27 57 11 28 44 111 74 185 79 192 77 175 23 193 -42
15 -46 15 -55 -3z"/>
<path d="M3410 4158 c-102 -88 -211 -184 -243 -213 l-58 -52 36 -22 37 -21 66
57 c335 289 422 366 422 372 0 8 -54 41 -67 41 -4 0 -91 -73 -193 -162z"/>
<path d="M1692 4260 c-137 -55 -163 -229 -48 -319 34 -27 47 -31 100 -31 72 0
125 23 174 77 40 45 40 56 1 70 -29 11 -34 10 -59 -17 -47 -51 -110 -64 -150
-32 -22 18 -22 18 86 70 147 70 139 63 120 101 -9 17 -35 45 -58 61 -33 24
-51 30 -92 29 -28 0 -61 -4 -74 -9z m103 -82 l28 -22 -79 -38 -79 -39 -3 32
c-4 35 7 50 53 73 39 21 47 20 80 -6z"/>
<path d="M2265 4167 c-23 -19 -27 -29 -21 -50 3 -15 18 -34 32 -43 31 -21 68
-7 86 31 10 22 8 30 -9 53 -26 36 -54 39 -88 9z"/>
<path d="M3628 4082 c-32 -37 -70 -80 -86 -97 -71 -76 -93 -140 -73 -211 21
-76 134 -164 209 -164 76 0 119 35 306 248 l20 23 -37 34 -37 34 -42 -47 c-23
-26 -74 -80 -112 -119 -62 -64 -75 -73 -107 -73 -62 0 -119 67 -105 123 3 13
51 76 107 141 l101 118 -33 28 c-19 16 -38 29 -44 29 -5 1 -36 -30 -67 -67z"/>
<path d="M1338 4040 c-41 -22 -76 -62 -84 -97 -5 -18 -9 -21 -20 -12 -10 8
-21 4 -48 -16 -21 -16 -33 -32 -29 -39 11 -18 228 -282 275 -333 21 -24 29
-23 77 16 l25 19 -52 58 c-29 32 -52 61 -52 65 0 3 19 9 41 12 93 12 155 128
119 223 -15 38 -57 86 -94 106 -41 23 -112 22 -158 -2z m128 -104 c27 -27 34
-42 34 -73 0 -95 -120 -123 -170 -41 -28 47 -26 84 9 119 41 41 83 39 127 -5z"/>
<path d="M4082 3753 c-6 -16 -28 -71 -50 -123 l-40 -95 -142 2 c-158 3 -154 5
-107 -64 l22 -33 93 0 c71 0 92 -3 92 -14 0 -7 -16 -48 -35 -90 l-35 -76 28
-50 c15 -27 30 -50 33 -50 3 0 29 57 57 128 l51 127 137 -4 137 -3 -25 43 -26
44 -91 9 c-50 4 -91 12 -91 17 0 5 14 39 30 76 17 36 30 72 30 79 0 7 -13 34
-29 59 l-29 46 -10 -28z"/>
<path d="M1027 3719 c-70 -37 -126 -144 -111 -212 10 -48 50 -101 95 -126 33
-19 52 -22 94 -19 154 13 241 202 143 314 -57 64 -147 82 -221 43z m146 -109
c57 -63 21 -153 -61 -153 -46 0 -74 19 -98 65 -19 37 -9 72 29 104 40 34 90
28 130 -16z"/>
<path d="M665 3430 c-12 -26 -15 -44 -9 -50 11 -11 412 -210 423 -210 6 0 35
66 36 82 0 6 -418 218 -429 218 -2 0 -11 -18 -21 -40z"/>
<path d="M763 3181 c-24 -11 -55 -38 -72 -62 -27 -36 -31 -50 -31 -106 0 -68
14 -105 52 -139 48 -44 143 -57 201 -28 82 41 136 170 103 248 l-16 37 -29
-17 c-25 -15 -29 -22 -28 -64 1 -56 -33 -117 -69 -126 -14 -4 -27 -4 -30 -1
-3 3 11 60 31 127 26 84 34 125 27 132 -20 20 -95 20 -139 -1z m67 -78 c0 -10
-42 -157 -47 -162 -2 -3 -14 6 -28 19 -36 33 -34 83 4 121 27 26 71 40 71 22z"/>
<path d="M4305 3054 c-71 -13 -168 -30 -214 -38 -46 -9 -85 -17 -87 -19 -8 -8
44 -264 59 -294 49 -93 142 -136 249 -114 78 17 133 61 158 129 24 64 25 92 4
219 -20 131 -23 143 -32 142 -4 -1 -65 -12 -137 -25z m93 -162 c19 -114 -14
-179 -102 -201 -69 -17 -130 9 -161 69 -16 31 -39 140 -31 147 6 6 228 50 262
52 18 1 22 -7 32 -67z"/>
<path d="M600 2783 l1 -48 115 -54 c63 -30 111 -58 107 -62 -4 -3 -26 -12 -48
-19 -22 -7 -72 -23 -111 -37 l-72 -25 -5 -46 c-3 -26 -4 -48 -2 -50 1 -2 29 6
61 17 129 44 287 101 289 103 1 2 5 26 9 53 l6 50 -167 83 c-93 45 -171 82
-175 82 -5 0 -8 -21 -8 -47z"/>
<path d="M4180 2533 c-92 -18 -164 -165 -131 -266 18 -54 34 -63 71 -37 28 20
29 23 15 43 -18 26 -19 73 -2 106 13 26 63 68 72 60 2 -3 -2 -61 -10 -130 -8
-68 -15 -127 -15 -130 0 -14 53 -19 90 -9 43 11 94 50 112 84 20 37 27 99 17
148 -8 36 -21 56 -54 87 -25 23 -53 41 -64 41 -10 0 -31 2 -47 4 -16 2 -40 2
-54 -1z m127 -125 c33 -31 32 -91 -3 -123 -34 -31 -54 -32 -54 -1 0 59 14 146
23 146 6 0 21 -10 34 -22z"/>
<path d="M741 2409 c-75 -16 -123 -75 -129 -157 -8 -116 67 -202 178 -202 121
0 194 95 175 230 -7 47 -54 130 -74 130 -5 0 -16 -12 -26 -26 -16 -26 -16 -28
4 -69 28 -56 27 -97 -3 -132 -13 -15 -27 -25 -30 -22 -4 3 -16 60 -27 125 -12
65 -24 122 -28 125 -3 3 -21 3 -40 -2z m21 -176 c8 -43 11 -82 8 -86 -12 -14
-59 12 -75 42 -20 40 -19 63 6 95 34 43 46 33 61 -51z"/>
<path d="M4027 2143 c-41 -60 -57 -108 -57 -170 0 -61 15 -91 57 -112 54 -27
94 -2 148 94 37 67 57 79 74 46 13 -23 -1 -72 -33 -116 l-22 -30 26 -28 c25
-26 27 -27 42 -10 34 37 68 127 68 179 0 61 -23 97 -75 114 -51 17 -85 -6
-132 -87 -43 -75 -75 -91 -81 -41 -3 28 39 118 64 139 11 9 7 16 -15 35 -16
13 -31 24 -34 24 -2 0 -16 -17 -30 -37z"/>
<path d="M772 1984 c-28 -14 -66 -44 -84 -67 -32 -40 -33 -44 -33 -132 1 -88
2 -92 55 -201 l55 -111 206 97 207 96 -22 50 c-87 193 -116 236 -188 272 -62
30 -129 29 -196 -4z m204 -115 c18 -19 44 -59 57 -89 l25 -55 -133 -61 -132
-61 -25 61 c-38 90 -39 95 -28 135 28 105 162 144 236 70z"/>
<path d="M3890 1821 l-19 -39 22 -15 c23 -15 284 -147 290 -147 11 0 39 82 31
90 -11 11 -285 150 -296 150 -4 0 -17 -18 -28 -39z"/>
<path d="M3753 1770 c-39 -16 -130 -116 -148 -164 -37 -96 -9 -149 133 -256
40 -30 95 -72 121 -92 l49 -38 27 36 c20 26 24 39 16 47 -17 17 -13 25 18 32
65 14 116 98 109 177 -9 89 -75 148 -165 148 -30 0 -67 -6 -82 -14 -40 -21
-82 -81 -88 -127 -3 -21 -9 -39 -12 -39 -13 0 -51 59 -51 80 0 33 45 96 87
121 21 12 40 24 41 25 6 4 -21 74 -28 73 -3 0 -15 -4 -27 -9z m186 -214 c58
-31 61 -111 4 -156 -38 -29 -79 -26 -115 10 -26 27 -30 36 -25 68 7 42 55 92
88 92 11 0 32 -6 48 -14z"/>
<path d="M4274 1662 c-37 -24 -37 -71 0 -101 41 -34 102 32 78 84 -12 25 -53
34 -78 17z"/>
<path d="M1257 1450 c-102 -32 -170 -167 -127 -251 29 -55 87 -99 132 -99 20
0 19 -4 -18 -42 -84 -90 -81 -84 -49 -118 16 -17 34 -30 39 -30 6 0 45 37 86
82 41 46 111 120 155 166 44 46 83 89 87 96 10 19 -59 71 -76 57 -11 -9 -15
-5 -19 17 -7 35 -50 88 -86 107 -37 19 -91 26 -124 15z m125 -118 c10 -10 21
-35 25 -55 5 -33 2 -41 -35 -77 -41 -41 -67 -48 -105 -29 -54 28 -69 76 -42
129 30 58 114 76 157 32z"/>
<path d="M3561 1374 c-17 -14 -31 -29 -31 -34 0 -4 27 -43 60 -86 49 -63 60
-85 60 -115 0 -29 -6 -43 -26 -58 -56 -44 -88 -27 -189 107 -21 28 -42 52 -45
52 -3 0 -20 -13 -39 -29 l-34 -28 40 -54 c64 -87 114 -143 137 -156 27 -16 93
-16 128 0 30 13 88 82 88 103 0 8 5 14 10 14 6 0 10 -4 10 -10 0 -17 14 -11
50 18 l34 29 -30 39 c-16 21 -36 47 -44 56 -8 9 -42 53 -75 97 -33 44 -63 81
-67 81 -3 0 -20 -12 -37 -26z"/>
<path d="M1587 1193 c-2 -5 0 -23 5 -40 7 -28 13 -33 39 -33 62 0 119 -49 119
-102 0 -16 -2 -28 -4 -28 -2 0 -37 19 -78 42 -40 22 -92 52 -116 64 l-43 23
-19 -42 c-26 -56 -25 -103 3 -152 54 -96 182 -130 270 -71 55 37 77 81 77 151
0 54 -4 67 -31 101 -40 51 -121 94 -176 94 -23 0 -44 -3 -46 -7z m63 -215 l72
-42 -22 -18 c-52 -42 -140 3 -140 71 0 17 4 31 9 31 4 0 41 -19 81 -42z"/>
<path d="M3125 1100 c-49 -19 -115 -80 -115 -106 0 -6 14 -17 32 -23 29 -10
34 -9 52 13 23 27 76 56 101 56 20 0 75 -28 75 -38 0 -4 -53 -29 -116 -57 -64
-27 -119 -56 -121 -63 -9 -21 43 -88 84 -108 81 -39 190 -9 240 68 59 89 24
216 -70 259 -53 23 -98 23 -162 -1z m171 -192 c-8 -43 -30 -65 -72 -73 -38 -7
-89 16 -81 38 3 11 120 64 146 66 10 1 12 -7 7 -31z"/>
<path d="M1990 982 c-13 -26 -64 -121 -113 -211 -48 -90 -86 -166 -83 -168 2
-3 25 -5 51 -6 l46 -2 55 105 c31 58 67 123 79 144 l23 39 6 -34 c4 -19 15
-94 26 -168 11 -73 21 -135 22 -136 2 -1 23 -5 48 -9 l45 -6 80 150 c44 82 81
146 82 142 2 -4 13 -78 26 -166 16 -109 28 -160 38 -166 21 -11 89 -20 89 -11
0 4 -11 79 -24 167 -14 87 -28 187 -31 221 -4 34 -12 68 -18 77 -7 8 -33 16
-60 18 l-49 3 -32 -60 c-126 -235 -122 -229 -130 -194 -5 24 -36 271 -36 288
0 5 -19 12 -42 16 -24 3 -50 8 -58 11 -10 2 -24 -12 -40 -44z"/>
<path d="M2870 1011 c-29 -9 -30 -34 -4 -143 19 -81 8 -114 -47 -141 -35 -17
-36 -19 -29 -53 5 -20 11 -38 13 -41 10 -9 46 8 76 37 19 16 31 23 31 15 0
-22 17 -27 61 -15 35 10 40 14 35 33 -3 12 -21 88 -39 169 -35 160 -33 157
-97 139z"/>
<path d="M2634 955 c-10 -25 4 -45 30 -45 25 0 44 30 31 50 -10 15 -55 12 -61
-5z"/>
</g>
</svg>
