<?xml version="1.0" standalone="no"?>
<!DOCTYPE svg PUBLIC "-//W3C//DTD SVG 20010904//EN"
 "http://www.w3.org/TR/2001/REC-SVG-20010904/DTD/svg10.dtd">
<svg version="1.0" xmlns="http://www.w3.org/2000/svg"
 width="500.000000pt" height="500.000000pt" viewBox="0 0 500.000000 500.000000"
 preserveAspectRatio="xMidYMid meet">

<g transform="translate(0.000000,500.000000) scale(0.100000,-0.100000)"
fill="#000000" stroke="none">
<path d="M2345 4660 c3 -5 18 -10 32 -10 l25 0 -7 -167 c-7 -197 -1 -221 75
-263 39 -22 57 -25 140 -25 84 0 99 3 128 24 18 13 38 35 44 50 6 14 16 98 22
186 l11 160 33 10 c53 15 37 25 -43 25 -43 0 -75 -4 -75 -10 0 -5 11 -10 25
-10 14 0 28 -7 32 -16 3 -8 1 -85 -4 -170 l-9 -154 -37 -38 c-35 -35 -41 -37
-97 -37 -68 1 -101 20 -132 75 -17 31 -18 49 -13 155 9 186 11 195 46 195 53
0 30 17 -32 24 -93 9 -171 8 -164 -4z"/>
<path d="M2970 4601 c0 -5 14 -14 30 -20 17 -5 30 -14 30 -18 0 -4 -13 -48
-29 -98 -16 -49 -43 -136 -60 -193 -32 -103 -32 -103 -61 -97 -15 3 -30 2 -33
-2 -3 -5 51 -26 120 -47 69 -21 137 -45 151 -52 31 -16 32 -15 197 140 66 62
137 127 158 145 20 18 37 36 37 40 0 3 -18 14 -40 24 l-40 19 -33 -27 c-35
-30 -269 -248 -298 -278 -9 -10 -27 -17 -39 -15 -45 6 -45 27 -1 179 74 251
68 237 113 231 55 -7 20 14 -67 41 -110 34 -135 39 -135 28z"/>
<path d="M1711 4374 c-11 -15 -21 -35 -21 -45 0 -17 -20 -39 -20 -22 0 4 -4
14 -9 22 -7 11 -20 8 -65 -18 -31 -18 -56 -39 -56 -47 0 -12 4 -12 21 -4 11 7
22 10 24 8 8 -8 115 -239 115 -247 0 -6 -8 -14 -17 -20 -10 -5 -14 -13 -10
-17 10 -10 167 67 167 82 0 7 -10 9 -24 7 -22 -5 -29 4 -70 86 -31 61 -46 103
-46 129 0 50 6 55 35 26 21 -21 28 -22 49 -13 49 23 35 92 -21 97 -24 2 -36
-3 -52 -24z"/>
<path d="M3586 4361 c-3 -5 1 -14 9 -21 24 -20 19 -33 -47 -115 -128 -158
-138 -174 -138 -223 0 -56 21 -100 73 -151 75 -75 153 -98 221 -66 18 9 73 66
130 135 95 116 118 134 144 108 17 -17 27 -1 12 18 -22 26 -101 77 -108 69 -4
-3 1 -11 11 -16 32 -18 18 -50 -67 -152 -106 -129 -125 -146 -169 -154 -68
-11 -167 76 -167 146 0 35 35 93 102 174 35 41 73 87 85 102 20 26 25 28 47
16 53 -29 42 -3 -21 49 -107 88 -111 91 -117 81z"/>
<path d="M1972 4214 c-28 -19 -29 -57 -2 -84 25 -25 41 -25 74 1 31 24 33 52
6 79 -24 24 -48 25 -78 4z"/>
<path d="M1380 4179 c-68 -27 -106 -101 -94 -180 6 -33 19 -55 59 -96 50 -51
53 -53 106 -53 45 0 64 6 101 30 54 36 84 92 73 139 -9 40 -25 30 -25 -16 0
-26 -8 -42 -31 -64 -41 -38 -79 -38 -121 0 -39 34 -37 37 58 107 35 26 64 52
64 59 0 15 -37 49 -77 69 -36 18 -76 20 -113 5z m60 -75 l43 -47 -34 -28 c-19
-16 -38 -29 -44 -29 -14 0 -52 59 -60 93 -8 31 8 57 35 57 10 0 37 -21 60 -46z"/>
<path d="M1115 3946 c-39 -17 -67 -59 -68 -102 -1 -34 -10 -43 -22 -23 -11 16
-21 8 -64 -50 -40 -53 -46 -88 -10 -55 17 15 20 15 43 1 13 -9 37 -28 53 -43
15 -14 61 -54 101 -88 70 -58 73 -62 67 -96 -5 -35 -5 -34 64 40 67 72 84 105
38 75 -21 -14 -26 -12 -61 17 l-38 31 37 13 c71 24 99 70 88 141 -11 63 -114
154 -175 153 -13 -1 -37 -7 -53 -14z m95 -123 c24 -20 49 -52 57 -71 13 -31
12 -36 -3 -53 -27 -30 -67 -23 -123 21 -81 64 -100 124 -48 147 30 14 65 0
117 -44z"/>
<path d="M4084 3904 c8 -29 -80 -263 -102 -271 -7 -3 -60 2 -119 10 -74 11
-115 22 -135 37 -15 11 -28 16 -28 9 0 -20 91 -149 101 -143 5 3 5 14 -2 26
-8 16 -8 24 4 35 12 12 29 14 87 8 43 -4 73 -12 76 -20 5 -11 -48 -150 -61
-164 -3 -2 -14 4 -25 14 -33 30 -35 9 -4 -38 16 -24 45 -69 64 -100 19 -31 38
-56 43 -57 4 0 5 17 2 38 -5 30 4 61 45 162 29 69 55 129 60 134 4 4 49 2 100
-5 70 -9 99 -18 120 -36 44 -37 43 -13 -3 60 -43 68 -64 85 -54 44 11 -41 -5
-50 -78 -45 -36 3 -69 9 -72 12 -6 6 43 121 60 141 5 6 13 3 22 -9 8 -10 19
-16 25 -14 11 3 -109 198 -124 198 -4 0 -5 -12 -2 -26z"/>
<path d="M890 3598 c-110 -31 -161 -191 -89 -282 57 -73 175 -87 247 -29 52
42 81 124 63 182 -18 62 -64 108 -124 126 -28 8 -53 15 -56 14 -3 0 -22 -5
-41 -11z m65 -104 c113 -58 148 -98 120 -141 -15 -23 -22 -25 -64 -21 -91 9
-211 89 -211 141 0 29 32 57 65 57 11 0 52 -16 90 -36z"/>
<path d="M527 3203 c-16 -74 -12 -101 10 -60 15 30 -2 33 253 -50 143 -47 145
-48 142 -75 -7 -56 18 -25 43 55 14 45 29 88 31 95 3 6 -1 12 -9 12 -9 0 -19
-9 -22 -20 -5 -16 -12 -19 -28 -15 -53 15 -258 80 -320 101 -38 13 -72 24 -77
24 -4 0 -15 -30 -23 -67z"/>
<path d="M4497 3124 c-4 -4 -7 -18 -7 -30 0 -13 -4 -26 -10 -29 -5 -3 -94 -16
-197 -29 -195 -25 -213 -24 -213 15 0 11 -4 19 -10 19 -15 0 -12 -50 10 -192
28 -181 50 -227 135 -271 56 -29 164 -29 220 0 109 57 130 132 104 373 -12
115 -21 154 -32 144z m17 -195 c23 -116 -10 -188 -97 -214 -191 -57 -306 -8
-323 138 l-7 57 39 1 c22 0 107 11 189 24 201 31 191 31 199 -6z"/>
<path d="M682 2993 c-36 -7 -90 -65 -97 -106 -15 -79 15 -141 86 -177 72 -37
190 -19 224 34 24 36 38 109 31 151 -5 24 -19 49 -39 68 -39 36 -48 18 -13
-24 35 -41 34 -83 -3 -120 -23 -23 -38 -29 -71 -29 l-42 0 6 33 c4 17 9 65 13
105 l6 72 -39 -1 c-21 -1 -49 -4 -62 -6z m63 -146 c-3 -29 -7 -53 -9 -54 -1
-2 -25 4 -53 12 -123 36 -100 109 30 96 l39 -3 -7 -51z"/>
<path d="M560 2580 c0 -47 3 -60 15 -60 8 0 15 6 15 14 0 8 4 17 8 20 9 5 173
-32 184 -43 4 -3 -34 -28 -84 -55 -82 -42 -93 -46 -104 -32 -6 9 -14 16 -18
16 -6 0 -1 -76 10 -148 l5 -32 22 25 c12 13 51 41 87 61 36 20 90 50 120 67
85 47 90 51 90 69 0 12 -15 21 -52 31 -266 72 -266 72 -274 104 -11 43 -24 23
-24 -37z"/>
<path d="M4143 2510 c-50 -33 -82 -117 -69 -184 7 -39 60 -101 76 -91 7 4 -1
20 -21 42 -26 30 -30 42 -25 71 8 49 35 73 91 79 l46 6 -6 -34 c-3 -19 -9 -67
-14 -106 l-7 -73 45 0 c87 0 146 49 157 130 8 60 -13 109 -62 146 -31 24 -48
29 -108 32 -58 2 -77 -1 -103 -18z m221 -112 c34 -15 44 -47 20 -65 -10 -7
-43 -13 -76 -13 -64 0 -65 2 -52 70 7 31 8 32 45 26 21 -3 50 -11 63 -18z"/>
<path d="M840 2253 c0 -5 15 -15 34 -21 34 -13 66 -60 66 -97 0 -21 -63 -85
-83 -85 -10 0 -26 31 -47 95 -17 52 -34 95 -37 95 -3 0 -27 -12 -54 -26 -109
-60 -106 -210 6 -264 78 -38 185 -10 233 60 40 60 22 182 -33 223 -28 20 -85
34 -85 20z m-36 -160 c9 -26 13 -50 8 -55 -4 -4 -32 -10 -62 -13 -108 -13
-122 43 -22 88 31 15 58 27 59 27 0 0 8 -21 17 -47z"/>
<path d="M4054 2208 c0 -7 -14 -43 -33 -81 -32 -63 -33 -70 -22 -107 14 -47
46 -71 104 -77 35 -4 46 0 70 22 15 14 36 43 47 65 18 35 54 70 72 70 15 0 38
-33 38 -55 0 -34 -46 -83 -91 -96 -49 -15 -50 -25 -1 -33 20 -4 45 -9 54 -12
12 -4 15 0 11 15 -3 11 5 32 19 51 32 44 32 119 0 153 -28 30 -84 43 -121 27
-14 -6 -42 -34 -61 -63 -60 -89 -76 -100 -104 -71 -52 51 30 164 119 164 45 0
26 17 -32 29 -70 14 -71 14 -69 -1z"/>
<path d="M3938 1918 c-13 -24 -31 -61 -41 -84 -16 -35 -22 -40 -44 -36 -20 4
-34 -5 -72 -46 -124 -133 -156 -218 -98 -268 41 -35 86 -32 123 9 24 25 73 86
111 136 2 2 6 2 9 -1 3 -3 -12 -30 -33 -59 -48 -68 -52 -119 -10 -155 16 -13
39 -24 52 -24 17 0 25 -7 28 -22 l4 -23 2 23 c1 14 10 26 27 32 67 26 114 133
84 191 -15 27 -68 52 -95 45 -21 -5 -24 -2 -27 31 -2 30 -9 41 -30 51 -22 10
-28 20 -28 46 0 62 15 61 163 -14 75 -39 139 -70 142 -70 3 0 5 6 5 13 0 6 11
38 24 70 18 44 21 57 10 57 -8 0 -14 -5 -14 -10 0 -28 -40 -18 -146 36 -109
56 -115 61 -111 87 5 39 -8 33 -35 -15z m-90 -180 c20 -20 14 -41 -31 -97 -65
-84 -95 -113 -114 -109 -45 8 -14 88 65 171 49 49 60 55 80 35z m151 -199 c34
-24 42 -35 39 -57 -4 -37 -39 -40 -88 -8 -43 28 -58 59 -40 81 19 22 43 18 89
-16z"/>
<path d="M830 1868 c-85 -44 -122 -95 -128 -177 -6 -77 8 -114 86 -241 36 -58
71 -115 79 -127 16 -27 39 -31 28 -5 -19 46 -17 49 62 97 43 26 116 72 163
102 47 29 91 53 97 53 6 0 16 -7 23 -15 7 -8 19 -15 26 -15 17 0 10 13 -58
120 -22 36 -46 74 -52 85 -48 87 -125 143 -209 152 -45 4 -60 1 -117 -29z
m243 -72 c34 -14 104 -107 93 -124 -3 -5 -56 -40 -118 -78 -62 -37 -140 -85
-172 -106 -33 -21 -63 -35 -68 -30 -19 19 -68 128 -68 152 0 36 41 91 99 134
85 63 166 81 234 52z"/>
<path d="M4266 1727 c-35 -26 -14 -97 29 -97 20 0 44 24 50 51 11 47 -39 75
-79 46z"/>
<path d="M3582 1429 c-34 -28 -62 -55 -62 -60 0 -5 12 -6 28 -4 24 4 34 -5 95
-80 69 -88 80 -120 51 -149 -31 -31 -35 -27 -185 152 -15 19 -17 28 -8 44 14
26 4 35 -18 17 -69 -54 -121 -103 -117 -111 3 -4 15 -3 26 3 24 13 17 19 131
-120 64 -78 90 -90 134 -67 41 21 54 39 60 86 l6 41 22 -21 22 -20 46 41 c52
45 60 64 23 55 -21 -5 -35 7 -105 92 -69 82 -81 101 -77 125 3 15 2 27 -2 27
-4 0 -35 -23 -70 -51z"/>
<path d="M3870 1355 c-27 -32 7 -73 52 -62 36 9 43 35 16 58 -28 22 -51 24
-68 4z"/>
<path d="M1389 1313 c-88 -80 -116 -177 -70 -241 22 -32 79 -56 107 -45 8 3
14 2 14 -2 0 -9 -70 -114 -81 -121 -19 -11 -7 -24 53 -58 62 -35 101 -39 57
-5 l-23 17 30 44 c42 58 91 128 112 158 9 14 38 55 64 93 52 73 51 79 -17 75
-36 -3 -40 -1 -43 22 -7 64 -51 100 -121 100 -33 0 -49 -7 -82 -37z m181 -42
c17 -32 12 -49 -31 -114 -81 -120 -121 -144 -155 -92 -16 24 -15 28 14 88 57
114 142 173 172 118z"/>
<path d="M3201 1177 c-24 -12 -52 -35 -63 -52 -19 -32 -25 -95 -8 -95 6 0 10
10 10 23 0 49 67 103 114 91 22 -5 76 -62 76 -79 0 -3 -21 -15 -47 -27 -27
-11 -67 -32 -90 -45 -42 -24 -42 -25 -28 -53 21 -40 70 -78 111 -86 68 -13
153 46 173 120 13 49 5 90 -27 143 -50 80 -136 103 -221 60z m163 -180 c19
-51 20 -79 4 -95 -28 -28 -62 -6 -101 65 l-18 32 38 20 c53 28 58 27 77 -22z"/>
<path d="M1775 1153 c-26 -5 -72 -40 -64 -48 4 -3 22 2 42 11 42 20 79 13 114
-22 22 -22 25 -32 20 -70 -2 -25 -7 -48 -10 -51 -4 -3 -44 11 -91 31 -46 20
-89 36 -95 36 -33 0 -41 -118 -12 -166 26 -42 101 -78 148 -71 48 8 109 50
128 87 22 43 30 120 16 163 -12 37 -87 97 -120 97 -9 0 -25 2 -36 4 -11 2 -29
2 -40 -1z m77 -224 c-6 -49 -64 -105 -96 -93 -21 8 -21 61 0 113 l16 40 41
-18 c34 -15 41 -23 39 -42z"/>
<path d="M3040 1100 c-14 -4 -53 -16 -87 -25 -58 -17 -76 -35 -33 -35 10 0 21
-4 24 -9 14 -22 56 -184 56 -215 0 -42 -25 -68 -35 -37 -9 29 -51 38 -75 16
-42 -38 -12 -88 48 -83 31 2 40 9 58 42 l22 38 8 -25 9 -25 63 26 c58 24 87
51 41 39 -24 -6 -25 -3 -68 142 -37 123 -37 128 -11 136 11 3 20 11 20 16 0
10 -6 10 -40 -1z"/>
<path d="M2138 957 c-14 -39 -43 -117 -63 -172 -53 -148 -61 -164 -90 -171
-29 -7 -34 -24 -6 -24 10 0 39 -3 65 -6 46 -7 67 8 26 19 -26 7 -26 39 -1 103
10 27 27 71 36 98 12 33 20 44 25 35 11 -20 32 -228 25 -239 -3 -6 -15 -10
-26 -10 -10 0 -19 -4 -19 -8 0 -10 189 -36 197 -28 3 3 -4 14 -16 23 -40 32
-38 87 4 181 21 45 41 80 44 76 6 -6 29 -186 30 -236 1 -22 -4 -28 -19 -28
-11 0 -20 -6 -20 -13 0 -10 28 -17 98 -24 53 -5 98 -9 100 -7 2 1 -7 12 -20
25 -21 21 -27 48 -51 224 -33 238 -32 234 -56 228 -12 -3 -40 -52 -82 -145
-46 -101 -65 -134 -70 -121 -4 10 -15 80 -25 156 -17 125 -20 137 -39 137 -16
0 -26 -15 -47 -73z"/>
<path d="M2700 981 c-16 -31 4 -63 37 -59 34 4 52 32 37 56 -16 26 -60 28 -74
3z"/>
</g>
</svg>
